HIERARCHY
ROOT Hips
{
	OFFSET 0.000000 0.000000 0.000000
	CHANNELS 6 Xposition Yposition Zposition Zrotation Yrotation Xrotation 
	JOINT LHipJoint
	{
		OFFSET 0.000000 0.000000 0.000000
		CHANNELS 3 Zrotation Yrotation Xrotation
		JOINT LeftUpLeg
		{
			OFFSET 1.363060 -1.794630 0.839290
			CHANNELS 3 Zrotation Yrotation Xrotation
			JOINT LeftLeg
			{
				OFFSET 2.448110 -6.726130 0.000000
				CHANNELS 3 Zrotation Yrotation Xrotation
				JOINT LeftFoot
				{
					OFFSET 2.562200 -7.039590 0.000000
					CHANNELS 3 Zrotation Yrotation Xrotation
					JOINT LeftToeBase
					{
						OFFSET 0.157640 -0.433110 2.322550
						CHANNELS 3 Zrotation Yrotation Xrotation
						End Site
						{
							OFFSET 0.000000 0.000000 0.000000
						}
					}
				}
			}
		}
	}
	JOINT RHipJoint
	{
		OFFSET 0.000000 0.000000 0.000000
		CHANNELS 3 Zrotation Yrotation Xrotation
		JOINT RightUpLeg
		{
			OFFSET -1.305520 -1.794630 0.839290
			CHANNELS 3 Zrotation Yrotation Xrotation
			JOINT RightLeg
			{
				OFFSET -2.542530 -6.985550 0.000000
				CHANNELS 3 Zrotation Yrotation Xrotation
				JOINT RightFoot
				{
					OFFSET -2.568260 -7.056230 0.000000
					CHANNELS 3 Zrotation Yrotation Xrotation
					JOINT RightToeBase
					{
						OFFSET -0.164730 -0.452590 2.363150
						CHANNELS 3 Zrotation Yrotation Xrotation
						End Site
						{
							OFFSET 0.000000 0.000000 0.000000
						}
					}
				}
			}
		}
	}
	JOINT LowerBack
	{
		OFFSET 0.000000 0.000000 0.000000
		CHANNELS 3 Zrotation Yrotation Xrotation
		JOINT Spine
		{
			OFFSET 0.028270 2.035590 -0.193380
			CHANNELS 3 Zrotation Yrotation Xrotation
			JOINT Spine1
			{
				OFFSET 0.056720 2.048850 -0.042750
				CHANNELS 3 Zrotation Yrotation Xrotation
				JOINT Neck
				{
					OFFSET 0.000000 0.000000 0.000000
					CHANNELS 3 Zrotation Yrotation Xrotation
					JOINT Neck1
					{
						OFFSET -0.054170 1.746240 0.172020
						CHANNELS 3 Zrotation Yrotation Xrotation
						JOINT Head
						{
							OFFSET 0.104070 1.761360 -0.123970
							CHANNELS 3 Zrotation Yrotation Xrotation
							End Site
							{
								OFFSET 0.000000 0.000000 0.000000
							}
						}
					}
				}
				JOINT LeftShoulder
				{
					OFFSET 0.000000 0.000000 0.000000
					CHANNELS 3 Zrotation Yrotation Xrotation
					JOINT LeftArm
					{
						OFFSET 3.362410 1.200890 -0.311210
						CHANNELS 3 Zrotation Yrotation Xrotation
						JOINT LeftForeArm
						{
							OFFSET 4.983000 -0.000000 -0.000000
							CHANNELS 3 Zrotation Yrotation Xrotation
							JOINT LeftHand
							{
								OFFSET 3.483560 -0.000000 -0.000000
								CHANNELS 3 Zrotation Yrotation Xrotation
								JOINT LeftFingerBase
								{
									OFFSET 0.000000 0.000000 0.000000
									CHANNELS 3 Zrotation Yrotation Xrotation
									JOINT LeftHandIndex1
									{
										OFFSET 0.715260 -0.000000 -0.000000
										CHANNELS 3 Zrotation Yrotation Xrotation
										End Site
										{
											OFFSET 0.000000 0.000000 0.000000
										}
									}
								}
								JOINT LThumb
								{
									OFFSET 0.000000 0.000000 0.000000
									CHANNELS 3 Zrotation Yrotation Xrotation
									End Site
									{
										OFFSET 0.000000 0.000000 0.000000
									}
								}
							}
						}
					}
				}
				JOINT RightShoulder
				{
					OFFSET 0.000000 0.000000 0.000000
					CHANNELS 3 Zrotation Yrotation Xrotation
					JOINT RightArm
					{
						OFFSET -3.136600 1.374050 -0.404650
						CHANNELS 3 Zrotation Yrotation Xrotation
						JOINT RightForeArm
						{
							OFFSET -5.241900 -0.000000 -0.000000
							CHANNELS 3 Zrotation Yrotation Xrotation
							JOINT RightHand
							{
								OFFSET -3.444170 -0.000000 -0.000000
								CHANNELS 3 Zrotation Yrotation Xrotation
								JOINT RightFingerBase
								{
									OFFSET 0.000000 0.000000 0.000000
									CHANNELS 3 Zrotation Yrotation Xrotation
									JOINT RightHandIndex1
									{
										OFFSET -0.622530 -0.000000 -0.000000
										CHANNELS 3 Zrotation Yrotation Xrotation
										End Site
										{
											OFFSET 0.000000 0.000000 0.000000
										}
									}
								}
								JOINT RThumb
								{
									OFFSET 0.000000 0.000000 0.000000
									CHANNELS 3 Zrotation Yrotation Xrotation
									End Site
									{
										OFFSET 0.000000 0.000000 0.000000
									}
								}
							}
						}
					}
				}
			}
		}
	}
}
MOTION
Frames: 10
Frame Time: 0.008333
-8.070592 16.925511 0.378653 -152.766352 85.945103 -118.926947 -12.445829 1.025226 -1.700735 -4.029042 -1.596656 -16.601535 -0.192908 1.213454 29.393614 1.490758 9.259308 7.812535 2.208300 0.000001 -66.581300 6.589881 0.544782 2.117618 8.064869 5.627124 -53.589400 3.796389 0.544462 11.806862 -1.215499 -3.915484 -4.725481 -1.024700 -0.000000 -51.326900 6.021194 -3.459965 3.425873 0.634475 -3.709252 -1.765318 -5.977867 -3.715998 1.518554 4.981121 -6.500136 -0.483782 -3.886104 -0.339978 1.623780 0.000000 0.000000 0.000000 5.672197 -1.919445 -1.984498 -55.849439 -33.473933 8.390653 -178.963214 -69.367209 179.900792 9.567857 -6.651697 -0.646589 -0.308971 0.854660 -0.000000 0.000000 0.000000 0.000000 0.000000 0.000000 0.000000 9.928945 -9.093528 2.994195 58.802311 -7.856769 -9.201203 3.344281 19.919448 -0.003185 3.125295 -2.900779 -0.075875 0.096473 -0.026607 -0.000000 0.000000 0.000000 0.000000 0.000000 0.000000 0.000000 
-7.864232 16.819113 0.391439 -148.449640 86.013798 -114.852880 -12.572919 1.036719 -1.696969 -3.900892 -1.440145 -16.684872 -0.092626 1.314322 31.601925 1.608301 10.065795 7.208943 2.309900 0.000000 -64.290700 6.540411 0.345348 1.962314 8.685520 5.726912 -54.513375 3.751557 -0.029033 15.357746 -1.108784 -3.500053 -4.374112 -0.995900 0.000000 -50.928300 6.291336 -3.465162 3.503285 0.693552 -3.722193 -1.774717 -5.953381 -3.733722 1.452207 4.929483 -6.371208 -0.565707 -3.883178 -0.338948 1.605327 0.000000 0.000000 0.000000 5.631888 -1.795542 -1.966274 -55.826774 -32.917566 7.979240 -178.945781 -68.845007 179.899199 9.689958 -6.917805 -0.679327 -0.313106 0.866284 -0.000000 0.000000 0.000000 0.000000 0.000000 0.000000 0.000000 9.777446 -8.933350 3.032884 58.405093 -7.446976 -9.518995 3.319747 19.920502 -0.003338 2.570673 -2.843510 -0.060571 0.099553 -0.029915 -0.000000 0.000000 0.000000 0.000000 0.000000 0.000000 0.000000 
-7.659205 16.705570 0.402253 -143.679072 86.054268 -110.357398 -12.700462 1.039258 -1.710669 -3.798232 -1.184415 -16.847575 0.008044 1.422423 34.017292 1.735510 10.946300 6.489795 2.397800 -0.000000 -61.293100 6.502551 0.158458 1.778620 9.333870 5.779667 -55.551032 3.662120 -0.650468 19.354680 -0.998292 -2.976004 -4.342614 -0.906399 -0.000000 -50.119600 6.580376 -3.460712 3.619586 0.754681 -3.723228 -1.783829 -5.933967 -3.739740 1.355047 4.904474 -6.174680 -0.631749 -3.887773 -0.338391 1.590845 0.000000 0.000000 0.000000 5.531252 -1.728727 -1.931393 -55.883462 -32.245103 7.590950 -178.931001 -68.439695 179.897239 9.869009 -7.183511 -0.716651 -0.318960 0.876464 -0.000000 0.000000 0.000000 0.000000 0.000000 0.000000 0.000000 9.688623 -8.696565 3.077120 57.979352 -7.069360 -9.743032 3.289505 19.989872 -0.003556 1.928929 -2.763994 -0.043364 0.102712 -0.033472 -0.000000 0.000000 0.000000 0.000000 0.000000 0.000000 0.000000 
-7.456326 16.586400 0.411192 -138.514122 86.056086 -105.512427 -12.824009 1.031946 -1.751921 -3.716100 -0.828651 -17.058486 0.108954 1.539957 36.609300 1.873508 11.905405 5.654243 2.465700 -0.000000 -57.614500 6.479069 -0.001359 1.566111 9.982775 5.797321 -56.624058 3.520870 -1.287616 23.673023 -0.899725 -2.411138 -4.678602 -0.771200 0.000001 -48.955199 6.885454 -3.445471 3.792011 0.815710 -3.710119 -1.789182 -5.924759 -3.731586 1.223928 4.920168 -5.898006 -0.668151 -3.902747 -0.338555 1.583576 0.000000 0.000000 0.000000 5.360612 -1.740535 -1.878217 -55.995536 -31.464756 7.218905 -178.919057 -68.151620 179.894898 10.107389 -7.437299 -0.758061 -0.326557 0.884716 -0.000000 0.000000 0.000000 0.000000 0.000000 0.000000 0.000000 9.687527 -8.377927 3.126133 57.516975 -6.721915 -9.869954 3.255735 20.106320 -0.003775 1.226581 -2.631337 -0.025258 0.105765 -0.037284 -0.000000 0.000000 0.000000 0.000000 0.000000 0.000000 0.000000 
-7.256273 16.463557 0.418406 -133.012143 86.007762 -100.380659 -12.941342 1.012576 -1.831565 -3.642016 -0.372011 -17.293299 0.210035 1.669532 39.343376 2.022374 12.937682 4.709044 2.505500 0.000000 -53.357201 6.469705 -0.126173 1.330878 10.609061 5.809967 -57.646720 3.329296 -1.904276 28.153070 -0.829323 -1.887433 -5.387996 -0.614300 -0.000000 -47.594800 7.203782 -3.416770 4.033515 0.874059 -3.679187 -1.788732 -5.932067 -3.705439 1.055155 4.994084 -5.544179 -0.660784 -3.933643 -0.339867 1.586909 0.000000 0.000000 0.000000 5.121136 -1.871061 -1.809374 -56.146184 -30.556200 6.843323 -178.910515 -67.959646 179.892186 10.404584 -7.668421 -0.802864 -0.335726 0.890589 0.000000 0.000000 0.000000 0.000000 0.000000 0.000000 0.000000 9.812728 -7.992089 3.180348 56.993648 -6.385952 -9.875914 3.220590 20.258609 -0.004004 0.483002 -2.452793 -0.007752 0.108585 -0.041208 -0.000000 0.000000 0.000000 0.000000 0.000000 0.000000 0.000000 
-7.059820 16.339268 0.423813 -127.296501 85.898998 -95.090795 -13.053302 0.979403 -1.957964 -3.561204 0.177725 -17.528217 0.311454 1.814269 42.183417 2.181525 14.032717 3.664822 2.508300 0.000000 -48.676900 6.471428 -0.215465 1.075828 11.210978 5.833876 -58.529698 3.102056 -2.469836 32.624895 -0.795459 -1.458232 -6.448758 -0.454000 -0.000000 -46.213700 7.534253 -3.374835 4.357342 0.927665 -3.629508 -1.779697 -5.961881 -3.660297 0.848718 5.139031 -5.096591 -0.595583 -3.982537 -0.342489 1.604124 0.000000 0.000000 0.000000 4.796357 -2.127470 -1.721500 -56.307729 -29.537463 6.457206 -178.905192 -67.869282 179.889208 10.754280 -7.863684 -0.849364 -0.346196 0.893466 0.000000 0.000000 0.000000 0.000000 0.000000 0.000000 0.000000 10.086683 -7.532728 3.237869 56.402970 -6.039846 -9.791450 3.186697 20.395446 -0.004166 -0.273217 -2.200071 0.007354 0.110959 -0.045258 -0.000000 0.000000 0.000000 0.000000 0.000000 0.000000 0.000000 
-6.867590 16.216042 0.427369 -121.529258 85.721983 -89.807890 -13.161197 0.931331 -2.136835 -3.459453 0.809482 -17.744182 0.413853 1.976651 45.088834 2.349224 15.173154 2.546210 2.467700 0.000000 -43.813100 6.480932 -0.274932 0.803128 11.795594 5.881561 -59.198392 2.858461 -2.965540 36.939697 -0.801214 -1.156198 -7.815671 -0.300700 0.000000 -45.018100 7.872370 -3.319972 4.773304 0.973855 -3.560015 -1.760778 -6.019676 -3.595204 0.603083 5.369276 -4.552858 -0.459073 -4.052751 -0.346656 1.638510 0.000000 0.000000 0.000000 4.380617 -2.536086 -1.614682 -56.460410 -28.393840 6.041250 -178.904061 -67.870887 179.886081 11.148419 -8.005857 -0.894869 -0.357462 0.892555 -0.000000 0.000000 0.000000 0.000000 0.000000 0.000000 0.000000 10.538575 -7.010633 3.298207 55.724197 -5.653053 -9.605999 3.156178 20.478909 -0.004257 -1.034577 -1.874036 0.018461 0.112790 -0.049300 -0.000000 0.000000 0.000000 0.000000 0.000000 0.000000 0.000000 
-6.680161 16.096147 0.428914 -115.957843 85.473168 -84.772384 -13.268339 0.867670 -2.366853 -3.325580 1.501085 -17.945475 0.518641 2.158522 48.034276 2.522555 16.335096 1.378071 2.378900 0.000000 -39.019700 6.493508 -0.314296 0.516223 12.373342 5.958572 -59.607279 2.618452 -3.384032 40.977032 -0.845462 -0.993058 -9.432903 -0.155499 0.000000 -44.096200 8.215466 -3.257215 5.280066 1.012079 -3.474726 -1.729882 -6.106802 -3.514255 0.329206 5.686279 -3.895192 -0.248125 -4.139534 -0.351960 1.690558 0.000000 0.000000 0.000000 3.853397 -3.050100 -1.484169 -56.590647 -27.189945 5.616133 -178.907679 -68.011845 179.883017 11.575981 -8.103294 -0.938984 -0.368952 0.887695 0.000000 0.000000 0.000000 0.000000 0.000000 0.000000 0.000000 11.157315 -6.414687 3.356527 54.985740 -5.181065 -9.443908 3.130545 20.416593 -0.004178 -1.760251 -1.444909 0.022967 0.113798 -0.053464 -0.000000 0.000000 0.000000 0.000000 0.000000 0.000000 0.000000 
-6.497682 15.981785 0.428515 -110.784547 85.157722 -80.180852 -13.374664 0.790057 -2.644100 -3.158907 2.228853 -18.133343 0.627457 2.360014 50.988747 2.697610 17.491685 0.193815 2.242300 0.000000 -34.569200 6.508299 -0.341942 0.215683 12.950493 6.059170 -59.729439 2.396953 -3.728181 44.658494 -0.923182 -0.960753 -11.233344 -0.012600 -0.000000 -43.547600 8.552400 -3.190492 5.873742 1.040146 -3.376253 -1.687202 -6.223857 -3.420375 0.032007 6.095609 -3.120027 0.041643 -4.240764 -0.358198 1.761392 0.000000 0.000000 0.000000 3.213919 -3.662628 -1.329967 -56.692364 -25.929364 5.181134 -178.918836 -68.315660 179.880155 12.030594 -8.150303 -0.980018 -0.379964 0.878248 -0.000000 0.000000 0.000000 0.000000 0.000000 0.000000 0.000000 11.946183 -5.749170 3.410610 54.192943 -4.597886 -9.349565 3.109250 20.169693 -0.003965 -2.444742 -0.929182 0.019671 0.113888 -0.057644 -0.000000 0.000000 0.000000 0.000000 0.000000 0.000000 0.000000 
-6.320019 15.874846 0.426339 -106.173714 84.788173 -76.185303 -13.478414 0.701256 -2.959848 -2.967596 2.962871 -18.324215 0.742007 2.579867 53.931768 2.869630 18.612511 -0.982526 2.059500 0.000000 -30.637900 6.526274 -0.363919 -0.096353 13.525413 6.171115 -59.563471 2.203725 -4.005401 47.933934 -1.027881 -1.041680 -13.144448 0.135700 -0.000001 -43.399900 8.868411 -3.125918 6.541256 1.056448 -3.269882 -1.633820 -6.367751 -3.319227 -0.279376 6.596992 -2.246737 0.405050 -4.352370 -0.364997 1.849782 0.000000 0.000000 0.000000 2.475596 -4.362736 -1.156500 -56.778566 -24.605512 4.736904 -178.942174 -68.810303 179.877656 12.503816 -8.148146 -1.016579 -0.389454 0.863724 -0.000000 0.000000 0.000000 0.000000 0.000000 0.000000 0.000000 12.895428 -5.040162 3.457515 53.352461 -3.850859 -9.322336 3.091520 19.686718 -0.003667 -3.104675 -0.339242 0.007973 0.113132 -0.061727 -0.000000 0.000000 0.000000 0.000000 0.000000 0.000000 0.000000 
